<svg xmlns="http://www.w3.org/2000/svg" xmlns:xlink="http://www.w3.org/1999/xlink" width="2000" zoomAndPan="magnify" viewBox="0 0 1500 1499.999933" height="2000" preserveAspectRatio="xMidYMid meet" version="1.0"><defs><g/></defs><rect x="-150" width="1800" fill="#ffffff" y="-149.999993" height="1799.99992" fill-opacity="1"/><rect x="-150" width="1800" fill="#ffffff" y="-149.999993" height="1799.99992" fill-opacity="1"/><path fill="#000000" d="M 754.976562 515.703125 C 808.703125 476.5625 884.246094 505.320312 897.457031 570.203125 C 901.089844 588.132812 899.496094 605.53125 892.667969 622.570312 C 870.234375 678.136719 802.585938 695.445312 754.886719 660.917969 C 754.175781 660.472656 753.46875 660.472656 752.757812 660.917969 C 723.941406 680.710938 694.152344 684.261719 663.296875 671.65625 C 621.539062 654.527344 598.839844 607.214844 611.785156 563.101562 C 629.785156 501.679688 701.246094 479.046875 752.582031 515.703125 C 753.378906 516.324219 754.175781 516.324219 754.976562 515.703125 Z M 744.777344 652.21875 C 709.667969 616.625 709.933594 561.148438 744.777344 524.402344 C 745.488281 523.691406 745.398438 523.070312 744.601562 522.539062 C 726.78125 511 708.871094 506.296875 690.871094 508.335938 C 647.339844 513.21875 613.292969 551.828125 618.613281 596.742188 C 623.222656 635.441406 653.101562 665 692.023438 668.550781 C 710.289062 670.234375 727.84375 665.355469 744.601562 654.082031 C 745.488281 653.550781 745.488281 652.929688 744.777344 652.21875 Z M 860.039062 526.53125 C 831.492188 503.101562 793.988281 501.859375 762.601562 522.714844 C 761.890625 523.25 761.800781 523.78125 762.421875 524.492188 C 797.179688 559.816406 798.152344 616.714844 762.511719 652.304688 C 761.800781 652.929688 761.890625 653.550781 762.601562 653.992188 C 777.140625 663.757812 792.300781 668.726562 807.996094 668.816406 C 841.863281 669.082031 871.742188 648.402344 883.890625 616.800781 C 896.214844 584.582031 886.460938 548.191406 860.039062 526.53125 Z M 754.441406 645.914062 C 787.25 613.875 786.449219 562.480469 754.621094 530.972656 C 754 530.351562 753.289062 530.351562 752.667969 531.058594 C 732.011719 552.894531 724.652344 577.925781 730.59375 606.152344 C 733.429688 619.820312 740.789062 633.046875 752.667969 645.828125 C 753.289062 646.449219 753.910156 646.449219 754.441406 645.914062 Z M 754.441406 645.914062 " fill-opacity="1" fill-rule="evenodd"/><path fill="#000000" d="M 652.394531 603.042969 C 653.011719 603.3125 653.632812 603.398438 654.253906 603.222656 C 658.863281 602.335938 661.257812 599.847656 661.4375 595.765625 C 661.789062 586.800781 661.878906 577.746094 661.703125 568.605469 C 661.613281 566.296875 662.675781 564.789062 664.714844 563.902344 C 665.515625 563.546875 666.3125 563.457031 667.109375 563.636719 C 670.125 564.34375 671.542969 566.207031 671.542969 569.316406 C 671.542969 575.617188 671.632812 582.273438 671.632812 589.375 C 671.632812 596.832031 670.835938 601.980469 669.0625 604.820312 C 663.476562 614.140625 650.175781 616.359375 642.109375 608.636719 C 638.5625 605.175781 636.699219 601.625 636.609375 598.074219 C 636.433594 588.398438 636.433594 578.636719 636.523438 568.78125 C 636.609375 565.585938 638.207031 563.902344 641.308594 563.546875 C 641.929688 563.457031 642.460938 563.546875 642.996094 563.8125 C 645.300781 564.699219 646.453125 566.476562 646.453125 568.960938 C 646.453125 577.480469 646.453125 586.003906 646.363281 594.613281 C 646.363281 598.519531 648.3125 601.359375 652.394531 603.042969 Z M 652.394531 603.042969 " fill-opacity="1" fill-rule="evenodd"/><path fill="#000000" d="M 694.683594 577.394531 L 701.601562 566.386719 C 703.285156 563.722656 705.589844 563.011719 708.515625 564.167969 C 709.136719 564.433594 709.757812 564.878906 710.378906 565.5 C 711.707031 566.917969 711.972656 569.050781 710.910156 570.734375 L 700.449219 587.332031 C 700.003906 587.957031 700.003906 588.664062 700.449219 589.464844 L 710.734375 605.707031 C 711.175781 606.507812 711.441406 607.394531 711.441406 608.28125 C 711.441406 610.234375 710.378906 611.921875 708.605469 612.71875 L 707.984375 612.984375 C 705.855469 613.960938 703.375 613.25 702.132812 611.300781 L 694.507812 599.050781 C 694.328125 598.785156 694.0625 598.605469 693.710938 598.605469 C 693.355469 598.605469 693.089844 598.785156 692.910156 599.050781 L 685.640625 610.679688 C 684.398438 612.898438 681.472656 613.785156 679.078125 612.628906 L 677.21875 611.652344 C 676.066406 611.121094 675.355469 610.054688 675.355469 608.8125 C 675.355469 608.191406 675.535156 607.660156 675.886719 607.128906 L 686.972656 589.640625 C 687.414062 588.929688 687.414062 587.957031 686.972656 587.15625 L 676.332031 570.46875 C 675.445312 569.050781 675.535156 567.097656 676.6875 565.855469 C 677.308594 565.144531 677.925781 564.609375 678.636719 564.257812 C 681.652344 562.835938 683.957031 563.457031 685.730469 566.207031 L 692.824219 577.394531 C 693.441406 578.367188 694.0625 578.367188 694.683594 577.394531 Z M 694.683594 577.394531 " fill-opacity="1" fill-rule="evenodd"/><path fill="#000000" d="M 819.609375 603.222656 C 820.320312 603.3125 820.941406 603.222656 821.558594 602.957031 C 825.285156 601.445312 827.144531 599.40625 827.144531 597.097656 C 827.414062 587.15625 827.5 577.746094 827.414062 568.871094 C 827.414062 565.675781 829.007812 563.988281 832.109375 563.636719 C 832.554688 563.546875 832.996094 563.636719 833.351562 563.636719 C 836.191406 564.078125 837.519531 565.765625 837.429688 568.515625 C 837.164062 575.351562 837.253906 582.628906 837.519531 590.351562 C 837.785156 596.652344 836.898438 601.535156 834.683594 604.996094 C 827.765625 616.269531 811.628906 616.003906 804.714844 604.375 C 802.941406 601.445312 802.054688 596.296875 802.144531 588.929688 C 802.144531 582.894531 802.144531 576.503906 802.230469 569.847656 C 802.230469 566.832031 803.652344 564.699219 806.488281 563.636719 C 807.285156 563.28125 808.082031 563.367188 809.058594 563.8125 C 811.097656 564.699219 812.074219 566.207031 812.074219 568.429688 C 811.984375 577.660156 812.074219 586.800781 812.429688 595.855469 C 812.605469 599.9375 815 602.421875 819.609375 603.222656 Z M 819.609375 603.222656 " fill-opacity="1" fill-rule="evenodd"/><path fill="#000000" d="M 858.445312 574.730469 L 858.445312 602.15625 C 858.445312 603.042969 858.886719 603.488281 859.863281 603.398438 C 863.496094 603.042969 865.269531 604.820312 865.183594 608.8125 C 865.09375 611.386719 863.054688 613.339844 860.570312 613.339844 L 846.296875 613.339844 C 844.703125 613.339844 843.105469 612.453125 842.308594 610.945312 C 839.914062 606.507812 842.839844 603.398438 847.359375 603.222656 C 848.070312 603.132812 848.425781 602.777344 848.425781 602.066406 L 848.425781 574.730469 C 848.425781 573.753906 847.980469 573.398438 847.09375 573.398438 C 843.460938 573.753906 841.597656 571.976562 841.597656 568.160156 C 841.6875 565.5 843.816406 563.457031 846.386719 563.457031 L 860.304688 563.457031 C 862.964844 563.457031 865.183594 565.675781 865.183594 568.429688 C 865.183594 568.605469 865.183594 568.78125 865.183594 568.960938 C 864.828125 572.066406 863.054688 573.488281 859.863281 573.308594 C 858.886719 573.308594 858.445312 573.753906 858.445312 574.730469 Z M 858.445312 574.730469 " fill-opacity="1" fill-rule="evenodd"/><g fill="#7b7155" fill-opacity="1"><g transform="translate(433.47916, 935.726443)"><g><path d="M 19.5 0.609375 C 16.5625 0.609375 13.972656 0.00390625 11.734375 -1.203125 C 9.492188 -2.410156 7.75 -4.0625 6.5 -6.15625 C 5.25 -8.25 4.625 -10.625 4.625 -13.28125 L 4.625 -39.109375 L 8.328125 -39.109375 L 8.328125 -13.546875 C 8.328125 -11.492188 8.789062 -9.660156 9.71875 -8.046875 C 10.644531 -6.429688 11.945312 -5.160156 13.625 -4.234375 C 15.300781 -3.316406 17.257812 -2.859375 19.5 -2.859375 C 21.757812 -2.859375 23.722656 -3.316406 25.390625 -4.234375 C 27.066406 -5.160156 28.367188 -6.429688 29.296875 -8.046875 C 30.222656 -9.660156 30.6875 -11.492188 30.6875 -13.546875 L 30.6875 -39.109375 L 34.359375 -39.109375 L 34.359375 -13.28125 C 34.359375 -10.625 33.734375 -8.25 32.484375 -6.15625 C 31.234375 -4.0625 29.492188 -2.410156 27.265625 -1.203125 C 25.035156 0.00390625 22.445312 0.609375 19.5 0.609375 Z M 19.5 0.609375 "/></g></g></g><g fill="#7b7155" fill-opacity="1"><g transform="translate(472.455994, 935.726443)"><g><path d="M 1.359375 0 L 16.40625 -21.3125 L 16.40625 -18.609375 L 2.078125 -39.109375 L 6.375 -39.109375 L 13.078125 -29.484375 C 13.773438 -28.484375 14.390625 -27.582031 14.921875 -26.78125 C 15.453125 -25.988281 15.957031 -25.203125 16.4375 -24.421875 C 16.925781 -23.648438 17.429688 -22.78125 17.953125 -21.8125 L 17.21875 -21.8125 C 17.757812 -22.757812 18.269531 -23.625 18.75 -24.40625 C 19.238281 -25.195312 19.753906 -25.988281 20.296875 -26.78125 C 20.835938 -27.582031 21.445312 -28.484375 22.125 -29.484375 L 28.90625 -39.109375 L 33.109375 -39.109375 L 18.828125 -18.71875 L 18.828125 -21.453125 L 33.734375 0 L 29.453125 0 L 21.796875 -10.96875 C 21.160156 -11.894531 20.585938 -12.726562 20.078125 -13.46875 C 19.578125 -14.21875 19.085938 -14.972656 18.609375 -15.734375 C 18.140625 -16.492188 17.648438 -17.332031 17.140625 -18.25 L 18.015625 -18.25 C 17.503906 -17.351562 17.007812 -16.53125 16.53125 -15.78125 C 16.0625 -15.03125 15.570312 -14.269531 15.0625 -13.5 C 14.5625 -12.738281 13.988281 -11.894531 13.34375 -10.96875 L 5.59375 0 Z M 1.359375 0 "/></g></g></g><g fill="#7b7155" fill-opacity="1"><g transform="translate(507.548268, 935.726443)"><g><path d="M 17.03125 -40.953125 L 4.4375 5.875 L 1.125 5.875 L 13.734375 -40.953125 Z M 17.03125 -40.953125 "/></g></g></g><g fill="#7b7155" fill-opacity="1"><g transform="translate(525.73746, 935.726443)"><g><path d="M 19.5 0.609375 C 16.5625 0.609375 13.972656 0.00390625 11.734375 -1.203125 C 9.492188 -2.410156 7.75 -4.0625 6.5 -6.15625 C 5.25 -8.25 4.625 -10.625 4.625 -13.28125 L 4.625 -39.109375 L 8.328125 -39.109375 L 8.328125 -13.546875 C 8.328125 -11.492188 8.789062 -9.660156 9.71875 -8.046875 C 10.644531 -6.429688 11.945312 -5.160156 13.625 -4.234375 C 15.300781 -3.316406 17.257812 -2.859375 19.5 -2.859375 C 21.757812 -2.859375 23.722656 -3.316406 25.390625 -4.234375 C 27.066406 -5.160156 28.367188 -6.429688 29.296875 -8.046875 C 30.222656 -9.660156 30.6875 -11.492188 30.6875 -13.546875 L 30.6875 -39.109375 L 34.359375 -39.109375 L 34.359375 -13.28125 C 34.359375 -10.625 33.734375 -8.25 32.484375 -6.15625 C 31.234375 -4.0625 29.492188 -2.410156 27.265625 -1.203125 C 25.035156 0.00390625 22.445312 0.609375 19.5 0.609375 Z M 19.5 0.609375 "/></g></g></g><g fill="#7b7155" fill-opacity="1"><g transform="translate(564.714294, 935.726443)"><g><path d="M 8.609375 -39.109375 L 8.609375 0 L 4.9375 0 L 4.9375 -39.109375 Z M 8.609375 -39.109375 "/></g></g></g><g fill="#7b7155" fill-opacity="1"><g transform="translate(578.257757, 935.726443)"><g/></g></g><g fill="#7b7155" fill-opacity="1"><g transform="translate(592.877355, 935.726443)"><g><path d="M 14.703125 0.53125 C 12.316406 0.53125 10.222656 0.0625 8.421875 -0.875 C 6.617188 -1.8125 5.210938 -3.082031 4.203125 -4.6875 C 3.203125 -6.289062 2.703125 -8.085938 2.703125 -10.078125 C 2.703125 -11.566406 2.992188 -12.890625 3.578125 -14.046875 C 4.171875 -15.210938 5.039062 -16.328125 6.1875 -17.390625 C 7.34375 -18.460938 8.742188 -19.625 10.390625 -20.875 L 16.21875 -25.203125 C 16.9375 -25.742188 17.601562 -26.316406 18.21875 -26.921875 C 18.832031 -27.523438 19.320312 -28.191406 19.6875 -28.921875 C 20.050781 -29.660156 20.234375 -30.476562 20.234375 -31.375 C 20.234375 -32.84375 19.742188 -34.050781 18.765625 -35 C 17.785156 -35.957031 16.507812 -36.4375 14.9375 -36.4375 C 13.851562 -36.4375 12.882812 -36.195312 12.03125 -35.71875 C 11.1875 -35.25 10.519531 -34.609375 10.03125 -33.796875 C 9.539062 -32.984375 9.296875 -32.035156 9.296875 -30.953125 C 9.296875 -30.003906 9.5 -29.101562 9.90625 -28.25 C 10.320312 -27.394531 10.914062 -26.472656 11.6875 -25.484375 C 12.457031 -24.503906 13.382812 -23.351562 14.46875 -22.03125 L 32.375 0 L 28.09375 0 L 12.5 -19.078125 C 11.113281 -20.796875 9.910156 -22.285156 8.890625 -23.546875 C 7.878906 -24.804688 7.101562 -26.019531 6.5625 -27.1875 C 6.019531 -28.351562 5.75 -29.609375 5.75 -30.953125 C 5.75 -32.628906 6.132812 -34.109375 6.90625 -35.390625 C 7.675781 -36.679688 8.75 -37.691406 10.125 -38.421875 C 11.5 -39.160156 13.085938 -39.53125 14.890625 -39.53125 C 16.671875 -39.53125 18.222656 -39.171875 19.546875 -38.453125 C 20.878906 -37.742188 21.921875 -36.769531 22.671875 -35.53125 C 23.429688 -34.300781 23.8125 -32.90625 23.8125 -31.34375 C 23.8125 -30.1875 23.59375 -29.101562 23.15625 -28.09375 C 22.71875 -27.09375 22.097656 -26.148438 21.296875 -25.265625 C 20.503906 -24.378906 19.554688 -23.523438 18.453125 -22.703125 L 11.375 -17.40625 C 9.53125 -16.039062 8.226562 -14.796875 7.46875 -13.671875 C 6.707031 -12.554688 6.328125 -11.332031 6.328125 -10 C 6.328125 -8.582031 6.679688 -7.316406 7.390625 -6.203125 C 8.097656 -5.097656 9.070312 -4.21875 10.3125 -3.5625 C 11.5625 -2.914062 12.972656 -2.59375 14.546875 -2.59375 C 16.203125 -2.59375 17.765625 -2.929688 19.234375 -3.609375 C 20.710938 -4.285156 22.019531 -5.238281 23.15625 -6.46875 C 24.289062 -7.707031 25.195312 -9.171875 25.875 -10.859375 C 26.5625 -12.546875 26.953125 -14.40625 27.046875 -16.4375 L 30.453125 -16.40625 C 30.398438 -14.414062 30.132812 -12.6875 29.65625 -11.21875 C 29.1875 -9.757812 28.625 -8.515625 27.96875 -7.484375 C 27.3125 -6.460938 26.675781 -5.601562 26.0625 -4.90625 L 25.3125 -3.96875 C 24.113281 -2.601562 22.578125 -1.507812 20.703125 -0.6875 C 18.835938 0.125 16.835938 0.53125 14.703125 0.53125 Z M 14.703125 0.53125 "/></g></g></g><g fill="#7b7155" fill-opacity="1"><g transform="translate(625.948602, 935.726443)"><g/></g></g><g fill="#7b7155" fill-opacity="1"><g transform="translate(640.5682, 935.726443)"><g><path d="M 4.9375 0 L 4.9375 -39.109375 L 17.875 -39.109375 C 20.59375 -39.109375 22.882812 -38.585938 24.75 -37.546875 C 26.625 -36.515625 28.046875 -35.09375 29.015625 -33.28125 C 29.992188 -31.476562 30.484375 -29.425781 30.484375 -27.125 C 30.484375 -24.8125 29.992188 -22.75 29.015625 -20.9375 C 28.046875 -19.125 26.617188 -17.691406 24.734375 -16.640625 C 22.859375 -15.585938 20.566406 -15.0625 17.859375 -15.0625 L 7.53125 -15.0625 L 7.53125 -18.375 L 17.75 -18.375 C 19.738281 -18.375 21.398438 -18.742188 22.734375 -19.484375 C 24.078125 -20.234375 25.09375 -21.269531 25.78125 -22.59375 C 26.476562 -23.914062 26.828125 -25.425781 26.828125 -27.125 C 26.828125 -28.820312 26.476562 -30.320312 25.78125 -31.625 C 25.09375 -32.925781 24.078125 -33.945312 22.734375 -34.6875 C 21.390625 -35.4375 19.71875 -35.8125 17.71875 -35.8125 L 8.609375 -35.8125 L 8.609375 0 Z M 4.9375 0 "/></g></g></g><g fill="#7b7155" fill-opacity="1"><g transform="translate(673.875677, 935.726443)"><g><path d="M 4.25 0 L 4.25 -28.984375 L 7.640625 -28.984375 L 7.640625 -24.421875 L 7.875 -24.421875 C 8.445312 -25.898438 9.441406 -27.09375 10.859375 -28 C 12.285156 -28.914062 13.914062 -29.375 15.75 -29.375 C 16.03125 -29.375 16.332031 -29.363281 16.65625 -29.34375 C 16.976562 -29.332031 17.242188 -29.328125 17.453125 -29.328125 L 17.453125 -25.78125 C 17.335938 -25.8125 17.082031 -25.847656 16.6875 -25.890625 C 16.289062 -25.941406 15.859375 -25.96875 15.390625 -25.96875 C 13.929688 -25.96875 12.625 -25.648438 11.46875 -25.015625 C 10.3125 -24.390625 9.40625 -23.515625 8.75 -22.390625 C 8.09375 -21.273438 7.765625 -19.972656 7.765625 -18.484375 L 7.765625 0 Z M 4.25 0 "/></g></g></g><g fill="#7b7155" fill-opacity="1"><g transform="translate(692.511073, 935.726443)"><g><path d="M 15.59375 0.609375 C 13.070312 0.609375 10.835938 -0.0234375 8.890625 -1.296875 C 6.953125 -2.566406 5.4375 -4.328125 4.34375 -6.578125 C 3.25 -8.835938 2.703125 -11.429688 2.703125 -14.359375 C 2.703125 -17.335938 3.25 -19.953125 4.34375 -22.203125 C 5.4375 -24.460938 6.953125 -26.226562 8.890625 -27.5 C 10.835938 -28.769531 13.070312 -29.40625 15.59375 -29.40625 C 18.144531 -29.40625 20.390625 -28.769531 22.328125 -27.5 C 24.265625 -26.226562 25.78125 -24.457031 26.875 -22.1875 C 27.96875 -19.925781 28.515625 -17.316406 28.515625 -14.359375 C 28.515625 -11.429688 27.96875 -8.835938 26.875 -6.578125 C 25.78125 -4.328125 24.265625 -2.566406 22.328125 -1.296875 C 20.390625 -0.0234375 18.144531 0.609375 15.59375 0.609375 Z M 15.59375 -2.578125 C 17.59375 -2.578125 19.285156 -3.101562 20.671875 -4.15625 C 22.066406 -5.21875 23.128906 -6.640625 23.859375 -8.421875 C 24.597656 -10.210938 24.96875 -12.191406 24.96875 -14.359375 C 24.96875 -16.566406 24.597656 -18.566406 23.859375 -20.359375 C 23.128906 -22.148438 22.0625 -23.570312 20.65625 -24.625 C 19.257812 -25.6875 17.570312 -26.21875 15.59375 -26.21875 C 13.632812 -26.21875 11.957031 -25.6875 10.5625 -24.625 C 9.175781 -23.5625 8.113281 -22.132812 7.375 -20.34375 C 6.644531 -18.5625 6.28125 -16.566406 6.28125 -14.359375 C 6.28125 -12.171875 6.644531 -10.1875 7.375 -8.40625 C 8.113281 -6.632812 9.175781 -5.21875 10.5625 -4.15625 C 11.957031 -3.101562 13.632812 -2.578125 15.59375 -2.578125 Z M 15.59375 -2.578125 "/></g></g></g><g fill="#7b7155" fill-opacity="1"><g transform="translate(723.718789, 935.726443)"><g><path d="M 14.75 0.609375 C 12.375 0.609375 10.28125 -0.0195312 8.46875 -1.28125 C 6.65625 -2.539062 5.238281 -4.296875 4.21875 -6.546875 C 3.207031 -8.796875 2.703125 -11.425781 2.703125 -14.4375 C 2.703125 -17.414062 3.207031 -20.03125 4.21875 -22.28125 C 5.238281 -24.53125 6.65625 -26.28125 8.46875 -27.53125 C 10.289062 -28.78125 12.394531 -29.40625 14.78125 -29.40625 C 16.476562 -29.40625 17.925781 -29.109375 19.125 -28.515625 C 20.320312 -27.921875 21.304688 -27.164062 22.078125 -26.25 C 22.847656 -25.34375 23.4375 -24.40625 23.84375 -23.4375 L 24.078125 -23.4375 L 24.078125 -39.109375 L 27.59375 -39.109375 L 27.59375 0 L 24.171875 0 L 24.171875 -5.4375 L 23.859375 -5.4375 C 23.441406 -4.457031 22.835938 -3.503906 22.046875 -2.578125 C 21.265625 -1.660156 20.273438 -0.898438 19.078125 -0.296875 C 17.890625 0.304688 16.445312 0.609375 14.75 0.609375 Z M 15.234375 -2.59375 C 17.097656 -2.59375 18.695312 -3.097656 20.03125 -4.109375 C 21.375 -5.117188 22.398438 -6.515625 23.109375 -8.296875 C 23.816406 -10.078125 24.171875 -12.132812 24.171875 -14.46875 C 24.171875 -16.78125 23.816406 -18.816406 23.109375 -20.578125 C 22.398438 -22.347656 21.378906 -23.726562 20.046875 -24.71875 C 18.722656 -25.707031 17.117188 -26.203125 15.234375 -26.203125 C 13.335938 -26.203125 11.722656 -25.695312 10.390625 -24.6875 C 9.066406 -23.6875 8.050781 -22.300781 7.34375 -20.53125 C 6.632812 -18.757812 6.28125 -16.738281 6.28125 -14.46875 C 6.28125 -12.1875 6.632812 -10.148438 7.34375 -8.359375 C 8.050781 -6.566406 9.070312 -5.15625 10.40625 -4.125 C 11.75 -3.101562 13.359375 -2.59375 15.234375 -2.59375 Z M 15.234375 -2.59375 "/></g></g></g><g fill="#7b7155" fill-opacity="1"><g transform="translate(755.556433, 935.726443)"><g><path d="M 14.328125 0.421875 C 12.367188 0.421875 10.628906 0.00390625 9.109375 -0.828125 C 7.585938 -1.660156 6.394531 -2.875 5.53125 -4.46875 C 4.675781 -6.070312 4.25 -8.019531 4.25 -10.3125 L 4.25 -28.984375 L 7.765625 -28.984375 L 7.765625 -10.578125 C 7.765625 -8.160156 8.4375 -6.257812 9.78125 -4.875 C 11.132812 -3.5 12.941406 -2.8125 15.203125 -2.8125 C 16.722656 -2.8125 18.09375 -3.132812 19.3125 -3.78125 C 20.539062 -4.425781 21.507812 -5.363281 22.21875 -6.59375 C 22.925781 -7.832031 23.28125 -9.3125 23.28125 -11.03125 L 23.28125 -28.984375 L 26.796875 -28.984375 L 26.796875 0 L 23.390625 0 L 23.390625 -6.765625 L 24.015625 -6.765625 C 23.191406 -4.234375 21.914062 -2.398438 20.1875 -1.265625 C 18.46875 -0.140625 16.515625 0.421875 14.328125 0.421875 Z M 14.328125 0.421875 "/></g></g></g><g fill="#7b7155" fill-opacity="1"><g transform="translate(786.606654, 935.726443)"><g><path d="M 15.59375 0.546875 C 13.070312 0.546875 10.835938 -0.0820312 8.890625 -1.34375 C 6.953125 -2.613281 5.4375 -4.375 4.34375 -6.625 C 3.25 -8.875 2.703125 -11.460938 2.703125 -14.390625 C 2.703125 -17.347656 3.25 -19.953125 4.34375 -22.203125 C 5.4375 -24.460938 6.953125 -26.226562 8.890625 -27.5 C 10.835938 -28.769531 13.070312 -29.40625 15.59375 -29.40625 C 17.101562 -29.40625 18.484375 -29.1875 19.734375 -28.75 C 20.984375 -28.3125 22.09375 -27.710938 23.0625 -26.953125 C 24.03125 -26.203125 24.835938 -25.351562 25.484375 -24.40625 C 26.140625 -23.46875 26.609375 -22.488281 26.890625 -21.46875 L 23.5 -20.65625 C 23.320312 -21.289062 23.019531 -21.9375 22.59375 -22.59375 C 22.164062 -23.25 21.617188 -23.847656 20.953125 -24.390625 C 20.285156 -24.929688 19.503906 -25.367188 18.609375 -25.703125 C 17.722656 -26.046875 16.71875 -26.21875 15.59375 -26.21875 C 13.632812 -26.21875 11.957031 -25.6875 10.5625 -24.625 C 9.175781 -23.570312 8.113281 -22.15625 7.375 -20.375 C 6.644531 -18.601562 6.28125 -16.609375 6.28125 -14.390625 C 6.28125 -12.203125 6.644531 -10.21875 7.375 -8.4375 C 8.113281 -6.664062 9.175781 -5.253906 10.5625 -4.203125 C 11.957031 -3.148438 13.632812 -2.625 15.59375 -2.625 C 16.726562 -2.625 17.75 -2.796875 18.65625 -3.140625 C 19.570312 -3.484375 20.363281 -3.929688 21.03125 -4.484375 C 21.695312 -5.046875 22.242188 -5.660156 22.671875 -6.328125 C 23.097656 -7.003906 23.398438 -7.671875 23.578125 -8.328125 L 26.96875 -7.515625 C 26.695312 -6.492188 26.234375 -5.5 25.578125 -4.53125 C 24.921875 -3.570312 24.101562 -2.707031 23.125 -1.9375 C 22.144531 -1.164062 21.019531 -0.554688 19.75 -0.109375 C 18.488281 0.328125 17.101562 0.546875 15.59375 0.546875 Z M 15.59375 0.546875 "/></g></g></g><g fill="#7b7155" fill-opacity="1"><g transform="translate(816.13456, 935.726443)"><g><path d="M 14.359375 -28.984375 L 14.359375 -25.90625 L 0.390625 -25.90625 L 0.390625 -28.984375 Z M 4.859375 -36.09375 L 8.375 -36.09375 L 8.375 -6.765625 C 8.375 -5.390625 8.679688 -4.375 9.296875 -3.71875 C 9.921875 -3.070312 10.882812 -2.800781 12.1875 -2.90625 C 12.457031 -2.925781 12.78125 -2.957031 13.15625 -3 C 13.539062 -3.050781 13.890625 -3.101562 14.203125 -3.15625 L 14.78125 -0.109375 C 14.394531 -0.00390625 13.960938 0.0703125 13.484375 0.125 C 13.015625 0.175781 12.554688 0.210938 12.109375 0.234375 C 9.804688 0.359375 8.019531 -0.179688 6.75 -1.390625 C 5.488281 -2.597656 4.859375 -4.304688 4.859375 -6.515625 Z M 4.859375 -36.09375 "/></g></g></g><g fill="#7b7155" fill-opacity="1"><g transform="translate(831.987761, 935.726443)"><g/></g></g><g fill="#7b7155" fill-opacity="1"><g transform="translate(846.607358, 935.726443)"><g><path d="M 16.453125 0 L 6.953125 0 L 6.953125 -3.3125 L 16.25 -3.3125 C 19.59375 -3.3125 22.382812 -3.960938 24.625 -5.265625 C 26.863281 -6.566406 28.546875 -8.441406 29.671875 -10.890625 C 30.804688 -13.335938 31.375 -16.257812 31.375 -19.65625 C 31.375 -23.019531 30.820312 -25.90625 29.71875 -28.3125 C 28.613281 -30.71875 26.988281 -32.566406 24.84375 -33.859375 C 22.695312 -35.160156 20.050781 -35.8125 16.90625 -35.8125 L 6.828125 -35.8125 L 6.828125 -39.109375 L 17.140625 -39.109375 C 20.867188 -39.109375 24.0625 -38.328125 26.71875 -36.765625 C 29.382812 -35.210938 31.425781 -32.984375 32.84375 -30.078125 C 34.257812 -27.179688 34.96875 -23.707031 34.96875 -19.65625 C 34.96875 -15.550781 34.242188 -12.03125 32.796875 -9.09375 C 31.359375 -6.164062 29.257812 -3.914062 26.5 -2.34375 C 23.75 -0.78125 20.398438 0 16.453125 0 Z M 8.609375 -39.109375 L 8.609375 0 L 4.9375 0 L 4.9375 -39.109375 Z M 8.609375 -39.109375 "/></g></g></g><g fill="#7b7155" fill-opacity="1"><g transform="translate(884.744287, 935.726443)"><g><path d="M 15.96875 0.609375 C 13.25 0.609375 10.894531 -0.0234375 8.90625 -1.296875 C 6.925781 -2.566406 5.394531 -4.328125 4.3125 -6.578125 C 3.238281 -8.828125 2.703125 -11.410156 2.703125 -14.328125 C 2.703125 -17.273438 3.238281 -19.878906 4.3125 -22.140625 C 5.394531 -24.410156 6.894531 -26.1875 8.8125 -27.46875 C 10.738281 -28.757812 12.957031 -29.40625 15.46875 -29.40625 C 17.144531 -29.40625 18.726562 -29.101562 20.21875 -28.5 C 21.71875 -27.894531 23.050781 -26.984375 24.21875 -25.765625 C 25.382812 -24.546875 26.296875 -23.03125 26.953125 -21.21875 C 27.617188 -19.414062 27.953125 -17.304688 27.953125 -14.890625 L 27.953125 -13.46875 L 4.9375 -13.46875 L 4.9375 -16.515625 L 26.046875 -16.515625 L 24.4375 -15.390625 C 24.4375 -17.484375 24.070312 -19.347656 23.34375 -20.984375 C 22.625 -22.617188 21.59375 -23.90625 20.25 -24.84375 C 18.914062 -25.78125 17.320312 -26.25 15.46875 -26.25 C 13.625 -26.25 12.007812 -25.765625 10.625 -24.796875 C 9.25 -23.835938 8.175781 -22.554688 7.40625 -20.953125 C 6.632812 -19.359375 6.25 -17.582031 6.25 -15.625 L 6.25 -13.90625 C 6.25 -11.632812 6.640625 -9.648438 7.421875 -7.953125 C 8.210938 -6.253906 9.335938 -4.929688 10.796875 -3.984375 C 12.265625 -3.046875 13.988281 -2.578125 15.96875 -2.578125 C 17.34375 -2.578125 18.5625 -2.796875 19.625 -3.234375 C 20.6875 -3.671875 21.578125 -4.269531 22.296875 -5.03125 C 23.023438 -5.789062 23.566406 -6.632812 23.921875 -7.5625 L 27.296875 -6.71875 C 26.859375 -5.382812 26.125 -4.15625 25.09375 -3.03125 C 24.0625 -1.914062 22.769531 -1.03125 21.21875 -0.375 C 19.675781 0.28125 17.925781 0.609375 15.96875 0.609375 Z M 15.96875 0.609375 "/></g></g></g><g fill="#7b7155" fill-opacity="1"><g transform="translate(915.269568, 935.726443)"><g><path d="M 13.578125 0.609375 C 11.628906 0.609375 9.898438 0.304688 8.390625 -0.296875 C 6.890625 -0.898438 5.660156 -1.785156 4.703125 -2.953125 C 3.753906 -4.128906 3.128906 -5.566406 2.828125 -7.265625 L 6.21875 -7.90625 C 6.582031 -6.113281 7.390625 -4.765625 8.640625 -3.859375 C 9.898438 -2.960938 11.523438 -2.515625 13.515625 -2.515625 C 15.722656 -2.515625 17.488281 -3.007812 18.8125 -4 C 20.132812 -4.988281 20.796875 -6.226562 20.796875 -7.71875 C 20.796875 -8.90625 20.390625 -9.878906 19.578125 -10.640625 C 18.773438 -11.398438 17.585938 -11.96875 16.015625 -12.34375 L 11.28125 -13.46875 C 8.769531 -14.082031 6.882812 -15.03125 5.625 -16.3125 C 4.363281 -17.601562 3.734375 -19.238281 3.734375 -21.21875 C 3.734375 -22.820312 4.171875 -24.238281 5.046875 -25.46875 C 5.921875 -26.707031 7.125 -27.671875 8.65625 -28.359375 C 10.1875 -29.054688 11.9375 -29.40625 13.90625 -29.40625 C 15.769531 -29.40625 17.382812 -29.109375 18.75 -28.515625 C 20.113281 -27.921875 21.226562 -27.078125 22.09375 -25.984375 C 22.957031 -24.890625 23.566406 -23.585938 23.921875 -22.078125 L 20.65625 -21.421875 C 20.269531 -22.859375 19.539062 -24.039062 18.46875 -24.96875 C 17.394531 -25.894531 15.875 -26.359375 13.90625 -26.359375 C 11.96875 -26.359375 10.375 -25.890625 9.125 -24.953125 C 7.882812 -24.015625 7.265625 -22.8125 7.265625 -21.34375 C 7.265625 -20.113281 7.6875 -19.113281 8.53125 -18.34375 C 9.382812 -17.582031 10.6875 -16.988281 12.4375 -16.5625 L 16.984375 -15.484375 C 19.472656 -14.890625 21.332031 -13.960938 22.5625 -12.703125 C 23.800781 -11.441406 24.421875 -9.84375 24.421875 -7.90625 C 24.421875 -6.21875 23.957031 -4.734375 23.03125 -3.453125 C 22.113281 -2.179688 20.84375 -1.1875 19.21875 -0.46875 C 17.59375 0.25 15.710938 0.609375 13.578125 0.609375 Z M 13.578125 0.609375 "/></g></g></g><g fill="#7b7155" fill-opacity="1"><g transform="translate(942.409001, 935.726443)"><g><path d="M 4.25 0 L 4.25 -28.984375 L 7.765625 -28.984375 L 7.765625 0 Z M 6.015625 -34.546875 C 5.304688 -34.546875 4.695312 -34.789062 4.1875 -35.28125 C 3.6875 -35.769531 3.4375 -36.359375 3.4375 -37.046875 C 3.4375 -37.722656 3.6875 -38.300781 4.1875 -38.78125 C 4.695312 -39.269531 5.304688 -39.515625 6.015625 -39.515625 C 6.710938 -39.515625 7.3125 -39.269531 7.8125 -38.78125 C 8.320312 -38.300781 8.578125 -37.722656 8.578125 -37.046875 C 8.578125 -36.359375 8.320312 -35.769531 7.8125 -35.28125 C 7.3125 -34.789062 6.710938 -34.546875 6.015625 -34.546875 Z M 6.015625 -34.546875 "/></g></g></g><g fill="#7b7155" fill-opacity="1"><g transform="translate(954.430148, 935.726443)"><g><path d="M 15.484375 11.53125 C 13.472656 11.53125 11.691406 11.253906 10.140625 10.703125 C 8.597656 10.160156 7.3125 9.40625 6.28125 8.4375 C 5.257812 7.46875 4.492188 6.335938 3.984375 5.046875 L 7.0625 3.65625 C 7.445312 4.488281 7.992188 5.269531 8.703125 6 C 9.410156 6.726562 10.316406 7.3125 11.421875 7.75 C 12.535156 8.1875 13.890625 8.40625 15.484375 8.40625 C 18.109375 8.40625 20.203125 7.742188 21.765625 6.421875 C 23.335938 5.097656 24.125 3.097656 24.125 0.421875 L 24.125 -5.859375 L 23.84375 -5.859375 C 23.40625 -4.878906 22.796875 -3.953125 22.015625 -3.078125 C 21.234375 -2.210938 20.25 -1.503906 19.0625 -0.953125 C 17.875 -0.398438 16.4375 -0.125 14.75 -0.125 C 12.425781 -0.125 10.351562 -0.707031 8.53125 -1.875 C 6.707031 -3.039062 5.28125 -4.695312 4.25 -6.84375 C 3.21875 -9 2.703125 -11.566406 2.703125 -14.546875 C 2.703125 -17.503906 3.210938 -20.097656 4.234375 -22.328125 C 5.265625 -24.554688 6.6875 -26.289062 8.5 -27.53125 C 10.320312 -28.78125 12.425781 -29.40625 14.8125 -29.40625 C 16.507812 -29.40625 17.957031 -29.109375 19.15625 -28.515625 C 20.351562 -27.921875 21.335938 -27.160156 22.109375 -26.234375 C 22.890625 -25.316406 23.492188 -24.378906 23.921875 -23.421875 L 24.203125 -23.421875 L 24.203125 -28.984375 L 27.625 -28.984375 L 27.625 0.546875 C 27.625 3.054688 27.097656 5.125 26.046875 6.75 C 24.992188 8.375 23.550781 9.578125 21.71875 10.359375 C 19.894531 11.140625 17.816406 11.53125 15.484375 11.53125 Z M 15.28125 -3.3125 C 17.132812 -3.3125 18.722656 -3.765625 20.046875 -4.671875 C 21.378906 -5.578125 22.40625 -6.875 23.125 -8.5625 C 23.84375 -10.257812 24.203125 -12.269531 24.203125 -14.59375 C 24.203125 -16.875 23.851562 -18.882812 23.15625 -20.625 C 22.457031 -22.363281 21.4375 -23.726562 20.09375 -24.71875 C 18.757812 -25.707031 17.15625 -26.203125 15.28125 -26.203125 C 13.382812 -26.203125 11.765625 -25.695312 10.421875 -24.6875 C 9.078125 -23.6875 8.050781 -22.3125 7.34375 -20.5625 C 6.632812 -18.820312 6.28125 -16.832031 6.28125 -14.59375 C 6.28125 -12.332031 6.632812 -10.351562 7.34375 -8.65625 C 8.0625 -6.957031 9.085938 -5.640625 10.421875 -4.703125 C 11.765625 -3.773438 13.382812 -3.3125 15.28125 -3.3125 Z M 15.28125 -3.3125 "/></g></g></g><g fill="#7b7155" fill-opacity="1"><g transform="translate(986.294022, 935.726443)"><g><path d="M 7.765625 -17.953125 L 7.765625 0 L 4.25 0 L 4.25 -28.984375 L 7.640625 -28.984375 L 7.671875 -22.203125 L 7.03125 -22.203125 C 7.84375 -24.722656 9.101562 -26.550781 10.8125 -27.6875 C 12.53125 -28.832031 14.5 -29.40625 16.71875 -29.40625 C 18.695312 -29.40625 20.441406 -28.988281 21.953125 -28.15625 C 23.472656 -27.320312 24.660156 -26.113281 25.515625 -24.53125 C 26.367188 -22.945312 26.796875 -20.992188 26.796875 -18.671875 L 26.796875 0 L 23.28125 0 L 23.28125 -18.40625 C 23.28125 -20.820312 22.609375 -22.71875 21.265625 -24.09375 C 19.921875 -25.476562 18.117188 -26.171875 15.859375 -26.171875 C 14.335938 -26.171875 12.960938 -25.847656 11.734375 -25.203125 C 10.503906 -24.554688 9.535156 -23.617188 8.828125 -22.390625 C 8.117188 -21.171875 7.765625 -19.691406 7.765625 -17.953125 Z M 7.765625 -17.953125 "/></g></g></g><g fill="#7b7155" fill-opacity="1"><g transform="translate(1017.344266, 935.726443)"><g><path d="M 15.96875 0.609375 C 13.25 0.609375 10.894531 -0.0234375 8.90625 -1.296875 C 6.925781 -2.566406 5.394531 -4.328125 4.3125 -6.578125 C 3.238281 -8.828125 2.703125 -11.410156 2.703125 -14.328125 C 2.703125 -17.273438 3.238281 -19.878906 4.3125 -22.140625 C 5.394531 -24.410156 6.894531 -26.1875 8.8125 -27.46875 C 10.738281 -28.757812 12.957031 -29.40625 15.46875 -29.40625 C 17.144531 -29.40625 18.726562 -29.101562 20.21875 -28.5 C 21.71875 -27.894531 23.050781 -26.984375 24.21875 -25.765625 C 25.382812 -24.546875 26.296875 -23.03125 26.953125 -21.21875 C 27.617188 -19.414062 27.953125 -17.304688 27.953125 -14.890625 L 27.953125 -13.46875 L 4.9375 -13.46875 L 4.9375 -16.515625 L 26.046875 -16.515625 L 24.4375 -15.390625 C 24.4375 -17.484375 24.070312 -19.347656 23.34375 -20.984375 C 22.625 -22.617188 21.59375 -23.90625 20.25 -24.84375 C 18.914062 -25.78125 17.320312 -26.25 15.46875 -26.25 C 13.625 -26.25 12.007812 -25.765625 10.625 -24.796875 C 9.25 -23.835938 8.175781 -22.554688 7.40625 -20.953125 C 6.632812 -19.359375 6.25 -17.582031 6.25 -15.625 L 6.25 -13.90625 C 6.25 -11.632812 6.640625 -9.648438 7.421875 -7.953125 C 8.210938 -6.253906 9.335938 -4.929688 10.796875 -3.984375 C 12.265625 -3.046875 13.988281 -2.578125 15.96875 -2.578125 C 17.34375 -2.578125 18.5625 -2.796875 19.625 -3.234375 C 20.6875 -3.671875 21.578125 -4.269531 22.296875 -5.03125 C 23.023438 -5.789062 23.566406 -6.632812 23.921875 -7.5625 L 27.296875 -6.71875 C 26.859375 -5.382812 26.125 -4.15625 25.09375 -3.03125 C 24.0625 -1.914062 22.769531 -1.03125 21.21875 -0.375 C 19.675781 0.28125 17.925781 0.609375 15.96875 0.609375 Z M 15.96875 0.609375 "/></g></g></g><g fill="#7b7155" fill-opacity="1"><g transform="translate(1047.869547, 935.726443)"><g><path d="M 4.25 0 L 4.25 -28.984375 L 7.640625 -28.984375 L 7.640625 -24.421875 L 7.875 -24.421875 C 8.445312 -25.898438 9.441406 -27.09375 10.859375 -28 C 12.285156 -28.914062 13.914062 -29.375 15.75 -29.375 C 16.03125 -29.375 16.332031 -29.363281 16.65625 -29.34375 C 16.976562 -29.332031 17.242188 -29.328125 17.453125 -29.328125 L 17.453125 -25.78125 C 17.335938 -25.8125 17.082031 -25.847656 16.6875 -25.890625 C 16.289062 -25.941406 15.859375 -25.96875 15.390625 -25.96875 C 13.929688 -25.96875 12.625 -25.648438 11.46875 -25.015625 C 10.3125 -24.390625 9.40625 -23.515625 8.75 -22.390625 C 8.09375 -21.273438 7.765625 -19.972656 7.765625 -18.484375 L 7.765625 0 Z M 4.25 0 "/></g></g></g><g fill="#2c3e5f" fill-opacity="1"><g transform="translate(79.375127, 821.954381)"><g><path d="M 30.640625 -0.953125 C 34.453125 -0.953125 37.488281 -1.976562 39.75 -4.03125 C 42.007812 -6.082031 43.140625 -8.835938 43.140625 -12.296875 L 43.140625 -41.671875 L 21.734375 -79.09375 C 17.492188 -86.363281 12.015625 -90.109375 5.296875 -90.328125 L 5.296875 -91.28125 L 48.34375 -91.28125 L 48.34375 -90.328125 C 44.457031 -90.253906 42.160156 -89.191406 41.453125 -87.140625 C 40.742188 -85.097656 41.34375 -82.414062 43.25 -79.09375 L 64.5625 -42.1875 L 84.8125 -79.09375 C 86.644531 -82.414062 86.960938 -85.097656 85.765625 -87.140625 C 84.566406 -89.191406 81.953125 -90.253906 77.921875 -90.328125 L 77.921875 -91.28125 L 103.046875 -91.28125 L 103.046875 -90.328125 C 99.015625 -90.179688 95.582031 -89.046875 92.75 -86.921875 C 89.925781 -84.804688 87.632812 -82.160156 85.875 -78.984375 L 65.09375 -41.03125 L 65.09375 -12.296875 C 65.09375 -8.835938 66.203125 -6.082031 68.421875 -4.03125 C 70.648438 -1.976562 73.710938 -0.953125 77.609375 -0.953125 L 77.609375 0 L 30.640625 0 Z M 30.640625 -0.953125 "/></g></g></g><g fill="#2c3e5f" fill-opacity="1"><g transform="translate(187.715168, 821.954381)"><g><path d="M 51.734375 0 C 45.304688 0 39.28125 -1.21875 33.65625 -3.65625 C 28.039062 -6.09375 23.113281 -9.445312 18.875 -13.71875 C 14.632812 -18 11.3125 -22.945312 8.90625 -28.5625 C 6.5 -34.1875 5.296875 -40.144531 5.296875 -46.4375 C 5.296875 -52.789062 6.5 -58.773438 8.90625 -64.390625 C 11.3125 -70.015625 14.648438 -74.960938 18.921875 -79.234375 C 23.203125 -83.515625 28.148438 -86.859375 33.765625 -89.265625 C 39.378906 -91.671875 45.367188 -92.875 51.734375 -92.875 C 58.097656 -92.875 64.085938 -91.671875 69.703125 -89.265625 C 75.328125 -86.859375 80.273438 -83.515625 84.546875 -79.234375 C 88.828125 -74.960938 92.164062 -70.015625 94.5625 -64.390625 C 96.96875 -58.773438 98.171875 -52.789062 98.171875 -46.4375 C 98.171875 -40 96.96875 -33.972656 94.5625 -28.359375 C 92.164062 -22.742188 88.84375 -17.8125 84.59375 -13.5625 C 80.351562 -9.320312 75.425781 -6 69.8125 -3.59375 C 64.195312 -1.195312 58.171875 0 51.734375 0 Z M 51.734375 -1.265625 C 53.078125 -1.265625 54.773438 -1.507812 56.828125 -2 C 58.878906 -2.5 61.050781 -3.546875 63.34375 -5.140625 C 65.644531 -6.734375 67.785156 -9.171875 69.765625 -12.453125 C 71.742188 -15.742188 73.367188 -20.144531 74.640625 -25.65625 C 75.910156 -31.164062 76.546875 -38.09375 76.546875 -46.4375 C 76.546875 -54.632812 75.910156 -61.453125 74.640625 -66.890625 C 73.367188 -72.335938 71.742188 -76.703125 69.765625 -79.984375 C 67.785156 -83.273438 65.644531 -85.75 63.34375 -87.40625 C 61.050781 -89.070312 58.878906 -90.1875 56.828125 -90.75 C 54.773438 -91.3125 53.078125 -91.59375 51.734375 -91.59375 C 50.390625 -91.59375 48.691406 -91.3125 46.640625 -90.75 C 44.597656 -90.1875 42.441406 -89.070312 40.171875 -87.40625 C 37.910156 -85.75 35.773438 -83.273438 33.765625 -79.984375 C 31.753906 -76.703125 30.109375 -72.335938 28.828125 -66.890625 C 27.554688 -61.453125 26.921875 -54.632812 26.921875 -46.4375 C 26.921875 -38.09375 27.554688 -31.164062 28.828125 -25.65625 C 30.109375 -20.144531 31.753906 -15.742188 33.765625 -12.453125 C 35.773438 -9.171875 37.910156 -6.734375 40.171875 -5.140625 C 42.441406 -3.546875 44.597656 -2.5 46.640625 -2 C 48.691406 -1.507812 50.390625 -1.265625 51.734375 -1.265625 Z M 51.734375 -1.265625 "/></g></g></g><g fill="#2c3e5f" fill-opacity="1"><g transform="translate(291.178836, 821.954381)"><g><path d="M 5.296875 -0.953125 L 7.109375 -0.953125 C 8.304688 -1.097656 9.945312 -1.644531 12.03125 -2.59375 C 14.113281 -3.550781 16.390625 -5.351562 18.859375 -8 C 21.335938 -10.65625 23.742188 -14.597656 26.078125 -19.828125 L 47.703125 -67.21875 L 58.625 -91.390625 L 94.78125 -12.078125 C 96.332031 -8.765625 98.132812 -6.3125 100.1875 -4.71875 C 102.238281 -3.125 104.144531 -2.113281 105.90625 -1.6875 C 107.675781 -1.269531 108.914062 -1.023438 109.625 -0.953125 L 110.15625 -0.953125 L 110.15625 0 L 67.109375 0 L 67.109375 -0.953125 L 67.640625 -0.953125 C 68.203125 -0.953125 68.976562 -1.078125 69.96875 -1.328125 C 70.957031 -1.578125 71.894531 -2.050781 72.78125 -2.75 C 73.664062 -3.457031 74.195312 -4.550781 74.375 -6.03125 C 74.550781 -7.519531 74.035156 -9.535156 72.828125 -12.078125 L 65.828125 -27.453125 L 30.640625 -27.453125 L 27.140625 -19.828125 C 25.515625 -16.296875 24.503906 -13.378906 24.109375 -11.078125 C 23.722656 -8.785156 23.722656 -6.945312 24.109375 -5.5625 C 24.503906 -4.1875 25.109375 -3.179688 25.921875 -2.546875 C 26.734375 -1.910156 27.523438 -1.484375 28.296875 -1.265625 C 29.078125 -1.054688 29.644531 -0.953125 30 -0.953125 L 30.328125 -0.953125 L 30.328125 0 L 5.296875 0 Z M 65.40625 -28.40625 L 48.234375 -66.046875 L 31.0625 -28.40625 Z M 65.40625 -28.40625 "/></g></g></g><g fill="#2c3e5f" fill-opacity="1"><g transform="translate(406.621422, 821.954381)"><g><path d="M 19.9375 -76.015625 L 18.234375 -77.8125 L 18.234375 -11.65625 C 18.304688 -9.257812 18.816406 -7.332031 19.765625 -5.875 C 20.722656 -4.425781 21.875 -3.367188 23.21875 -2.703125 C 24.5625 -2.035156 25.832031 -1.578125 27.03125 -1.328125 C 28.238281 -1.078125 29.160156 -0.953125 29.796875 -0.953125 L 30.328125 -0.953125 L 30.328125 0 L 5.296875 0 L 5.296875 -0.953125 L 5.828125 -0.953125 C 6.390625 -0.953125 7.289062 -1.078125 8.53125 -1.328125 C 9.769531 -1.578125 11.039062 -2.035156 12.34375 -2.703125 C 13.65625 -3.367188 14.785156 -4.425781 15.734375 -5.875 C 16.691406 -7.332031 17.207031 -9.257812 17.28125 -11.65625 L 17.28125 -77.5 C 17.207031 -82.019531 16.128906 -85.285156 14.046875 -87.296875 C 11.960938 -89.316406 9.046875 -90.328125 5.296875 -90.328125 L 5.296875 -91.390625 L 35.09375 -91.390625 L 86.9375 -32.65625 L 86.9375 -79.625 C 86.863281 -82.445312 86.207031 -84.597656 84.96875 -86.078125 C 83.726562 -87.566406 82.332031 -88.609375 80.78125 -89.203125 C 79.226562 -89.804688 77.847656 -90.160156 76.640625 -90.265625 C 75.441406 -90.378906 74.84375 -90.4375 74.84375 -90.4375 L 74.84375 -91.390625 L 99.96875 -91.390625 L 99.96875 -90.328125 C 99.96875 -90.328125 99.367188 -90.289062 98.171875 -90.21875 C 96.972656 -90.144531 95.59375 -89.804688 94.03125 -89.203125 C 92.476562 -88.609375 91.082031 -87.566406 89.84375 -86.078125 C 88.613281 -84.597656 87.960938 -82.445312 87.890625 -79.625 L 87.890625 0 L 86.828125 0 Z M 19.9375 -76.015625 "/></g></g></g><g fill="#2c3e5f" fill-opacity="1"><g transform="translate(511.887236, 821.954381)"><g><path d="M 5.296875 -0.953125 L 7.109375 -0.953125 C 8.304688 -1.097656 9.945312 -1.644531 12.03125 -2.59375 C 14.113281 -3.550781 16.390625 -5.351562 18.859375 -8 C 21.335938 -10.65625 23.742188 -14.597656 26.078125 -19.828125 L 47.703125 -67.21875 L 58.625 -91.390625 L 94.78125 -12.078125 C 96.332031 -8.765625 98.132812 -6.3125 100.1875 -4.71875 C 102.238281 -3.125 104.144531 -2.113281 105.90625 -1.6875 C 107.675781 -1.269531 108.914062 -1.023438 109.625 -0.953125 L 110.15625 -0.953125 L 110.15625 0 L 67.109375 0 L 67.109375 -0.953125 L 67.640625 -0.953125 C 68.203125 -0.953125 68.976562 -1.078125 69.96875 -1.328125 C 70.957031 -1.578125 71.894531 -2.050781 72.78125 -2.75 C 73.664062 -3.457031 74.195312 -4.550781 74.375 -6.03125 C 74.550781 -7.519531 74.035156 -9.535156 72.828125 -12.078125 L 65.828125 -27.453125 L 30.640625 -27.453125 L 27.140625 -19.828125 C 25.515625 -16.296875 24.503906 -13.378906 24.109375 -11.078125 C 23.722656 -8.785156 23.722656 -6.945312 24.109375 -5.5625 C 24.503906 -4.1875 25.109375 -3.179688 25.921875 -2.546875 C 26.734375 -1.910156 27.523438 -1.484375 28.296875 -1.265625 C 29.078125 -1.054688 29.644531 -0.953125 30 -0.953125 L 30.328125 -0.953125 L 30.328125 0 L 5.296875 0 Z M 65.40625 -28.40625 L 48.234375 -66.046875 L 31.0625 -28.40625 Z M 65.40625 -28.40625 "/></g></g></g><g fill="#2c3e5f" fill-opacity="1"><g transform="translate(627.329777, 821.954381)"><g/></g></g><g fill="#2c3e5f" fill-opacity="1"><g transform="translate(690.934523, 821.954381)"><g><path d="M 51.734375 0 C 45.585938 0 39.789062 -1.109375 34.34375 -3.328125 C 28.90625 -5.554688 24.066406 -8.6875 19.828125 -12.71875 C 15.585938 -16.75 12.191406 -21.414062 9.640625 -26.71875 C 7.097656 -32.019531 5.648438 -37.742188 5.296875 -43.890625 L 5.296875 -49.1875 C 5.648438 -54.988281 7.007812 -60.429688 9.375 -65.515625 C 11.75 -70.609375 14.84375 -75.097656 18.65625 -78.984375 L 18.984375 -79.296875 C 23.359375 -83.679688 28.351562 -87.039062 33.96875 -89.375 C 39.59375 -91.707031 45.515625 -92.875 51.734375 -92.875 C 57.179688 -92.875 62.375 -91.953125 67.3125 -90.109375 C 72.332031 -88.628906 75.988281 -88.066406 78.28125 -88.421875 C 80.582031 -88.773438 81.84375 -89.941406 82.0625 -91.921875 L 83.015625 -91.921875 L 83.015625 -66.890625 L 82.0625 -66.890625 C 81.914062 -70.785156 80.976562 -74.269531 79.25 -77.34375 C 77.519531 -80.414062 75.222656 -83.046875 72.359375 -85.234375 C 69.492188 -87.421875 66.289062 -89.082031 62.75 -90.21875 C 59.21875 -91.351562 55.546875 -91.921875 51.734375 -91.921875 C 50.390625 -91.921875 48.691406 -91.632812 46.640625 -91.0625 C 44.597656 -90.5 42.441406 -89.367188 40.171875 -87.671875 C 37.910156 -85.972656 35.773438 -83.445312 33.765625 -80.09375 C 31.753906 -76.738281 30.109375 -72.335938 28.828125 -66.890625 C 27.554688 -61.453125 26.921875 -54.632812 26.921875 -46.4375 C 26.921875 -38.3125 27.554688 -31.507812 28.828125 -26.03125 C 30.109375 -20.550781 31.753906 -16.128906 33.765625 -12.765625 C 35.773438 -9.410156 37.910156 -6.882812 40.171875 -5.1875 C 42.441406 -3.5 44.597656 -2.367188 46.640625 -1.796875 C 48.691406 -1.234375 50.390625 -0.953125 51.734375 -0.953125 C 57.671875 -0.953125 62.898438 -2.171875 67.421875 -4.609375 C 71.953125 -7.046875 75.503906 -10.507812 78.078125 -15 C 80.660156 -19.488281 81.988281 -24.769531 82.0625 -30.84375 L 82.0625 -32.328125 L 83.015625 -32.328125 L 83.015625 -0.953125 L 82.0625 -0.953125 C 81.84375 -3.078125 80.53125 -4.257812 78.125 -4.5 C 75.726562 -4.75 72.125 -4.164062 67.3125 -2.75 C 62.375 -0.914062 57.179688 0 51.734375 0 Z M 51.734375 0 "/></g></g></g><g fill="#2c3e5f" fill-opacity="1"><g transform="translate(779.23905, 821.954381)"><g><path d="M 5.296875 -0.953125 C 9.253906 -0.953125 12.328125 -1.851562 14.515625 -3.65625 C 16.710938 -5.457031 17.8125 -8.300781 17.8125 -12.1875 L 17.8125 -79.1875 C 17.8125 -81.664062 17.382812 -83.628906 16.53125 -85.078125 C 15.6875 -86.523438 14.644531 -87.632812 13.40625 -88.40625 C 12.175781 -89.1875 10.921875 -89.71875 9.640625 -90 C 8.367188 -90.289062 7.347656 -90.4375 6.578125 -90.4375 L 5.296875 -90.4375 L 5.296875 -91.390625 L 51.203125 -91.390625 C 55.515625 -91.390625 59.648438 -90.960938 63.609375 -90.109375 C 67.566406 -89.265625 71.117188 -87.90625 74.265625 -86.03125 C 77.410156 -84.15625 79.898438 -81.71875 81.734375 -78.71875 C 83.578125 -75.71875 84.5 -72.09375 84.5 -67.84375 C 84.5 -63.1875 83.347656 -59.25 81.046875 -56.03125 C 78.753906 -52.8125 75.769531 -50.265625 72.09375 -48.390625 C 68.414062 -46.523438 64.421875 -45.238281 60.109375 -44.53125 C 65.128906 -44.25 69.15625 -43.414062 72.1875 -42.03125 C 75.226562 -40.65625 77.738281 -38.429688 79.71875 -35.359375 C 81.695312 -32.285156 83.535156 -28.023438 85.234375 -22.578125 C 87.078125 -16.921875 88.878906 -12.519531 90.640625 -9.375 C 92.410156 -6.238281 94.40625 -4.050781 96.625 -2.8125 C 98.851562 -1.570312 101.5625 -0.953125 104.75 -0.953125 L 104.75 0 L 85.65625 0 C 81.695312 0 77.863281 -1.660156 74.15625 -4.984375 C 70.445312 -8.304688 66.929688 -14.171875 63.609375 -22.578125 C 62.054688 -26.679688 60.90625 -30.09375 60.15625 -32.8125 C 59.414062 -35.53125 58.765625 -37.6875 58.203125 -39.28125 C 57.640625 -40.875 56.914062 -42.003906 56.03125 -42.671875 C 55.144531 -43.335938 53.75 -43.671875 51.84375 -43.671875 L 39.75 -43.671875 L 39.75 -11.984375 C 39.75 -8.234375 40.648438 -5.457031 42.453125 -3.65625 C 44.253906 -1.851562 47.132812 -0.953125 51.09375 -0.953125 L 51.09375 0 L 5.296875 0 Z M 51.203125 -44.734375 C 53.742188 -44.734375 55.878906 -45.757812 57.609375 -47.8125 C 59.347656 -49.863281 60.660156 -52.640625 61.546875 -56.140625 C 62.429688 -59.640625 62.875 -63.539062 62.875 -67.84375 C 62.875 -72.15625 62.429688 -76.007812 61.546875 -79.40625 C 60.660156 -82.800781 59.347656 -85.488281 57.609375 -87.46875 C 55.878906 -89.445312 53.742188 -90.4375 51.203125 -90.4375 L 39.75 -90.4375 L 39.75 -44.734375 Z M 51.203125 -44.734375 "/></g></g></g><g fill="#2c3e5f" fill-opacity="1"><g transform="translate(889.275265, 821.954381)"><g><path d="M 5.296875 -0.953125 C 9.179688 -0.953125 12.238281 -1.957031 14.46875 -3.96875 C 16.695312 -5.988281 17.8125 -8.726562 17.8125 -12.1875 L 17.8125 -79.1875 C 17.8125 -82.726562 16.695312 -85.488281 14.46875 -87.46875 C 12.238281 -89.445312 9.179688 -90.4375 5.296875 -90.4375 L 5.296875 -91.390625 L 77.28125 -91.390625 L 80.890625 -67.84375 L 80.046875 -67.421875 L 79.71875 -69.328125 C 79.507812 -70.390625 79.066406 -71.800781 78.390625 -73.5625 C 77.722656 -75.332031 76.679688 -77.171875 75.265625 -79.078125 C 73.859375 -80.992188 71.96875 -82.816406 69.59375 -84.546875 C 67.226562 -86.273438 64.242188 -87.6875 60.640625 -88.78125 C 57.035156 -89.882812 52.65625 -90.4375 47.5 -90.4375 L 39.859375 -90.4375 L 39.75 -48.453125 L 55.65625 -48.453125 C 58.132812 -48.523438 60.078125 -49.019531 61.484375 -49.9375 C 62.898438 -50.851562 63.960938 -51.984375 64.671875 -53.328125 C 65.378906 -54.671875 65.835938 -55.941406 66.046875 -57.140625 C 66.253906 -58.335938 66.359375 -59.257812 66.359375 -59.90625 L 66.359375 -60.421875 L 67.3125 -60.421875 L 67.3125 -35.40625 L 66.359375 -35.40625 L 66.359375 -35.9375 C 66.359375 -36.570312 66.253906 -37.488281 66.046875 -38.6875 C 65.835938 -39.894531 65.378906 -41.171875 64.671875 -42.515625 C 63.960938 -43.859375 62.898438 -45.003906 61.484375 -45.953125 C 60.078125 -46.910156 58.132812 -47.425781 55.65625 -47.5 L 39.75 -47.5 L 39.75 -12.1875 C 39.75 -8.726562 40.863281 -5.988281 43.09375 -3.96875 C 45.320312 -1.957031 48.378906 -0.953125 52.265625 -0.953125 C 61.378906 -0.953125 68.992188 -2.859375 75.109375 -6.671875 C 81.222656 -10.492188 85.550781 -16.253906 88.09375 -23.953125 L 89.046875 -23.953125 L 82.0625 0 L 5.296875 0 Z M 5.296875 -0.953125 "/></g></g></g><g fill="#2c3e5f" fill-opacity="1"><g transform="translate(983.622181, 821.954381)"><g><path d="M 5.296875 -0.953125 L 7.109375 -0.953125 C 8.304688 -1.097656 9.945312 -1.644531 12.03125 -2.59375 C 14.113281 -3.550781 16.390625 -5.351562 18.859375 -8 C 21.335938 -10.65625 23.742188 -14.597656 26.078125 -19.828125 L 47.703125 -67.21875 L 58.625 -91.390625 L 94.78125 -12.078125 C 96.332031 -8.765625 98.132812 -6.3125 100.1875 -4.71875 C 102.238281 -3.125 104.144531 -2.113281 105.90625 -1.6875 C 107.675781 -1.269531 108.914062 -1.023438 109.625 -0.953125 L 110.15625 -0.953125 L 110.15625 0 L 67.109375 0 L 67.109375 -0.953125 L 67.640625 -0.953125 C 68.203125 -0.953125 68.976562 -1.078125 69.96875 -1.328125 C 70.957031 -1.578125 71.894531 -2.050781 72.78125 -2.75 C 73.664062 -3.457031 74.195312 -4.550781 74.375 -6.03125 C 74.550781 -7.519531 74.035156 -9.535156 72.828125 -12.078125 L 65.828125 -27.453125 L 30.640625 -27.453125 L 27.140625 -19.828125 C 25.515625 -16.296875 24.503906 -13.378906 24.109375 -11.078125 C 23.722656 -8.785156 23.722656 -6.945312 24.109375 -5.5625 C 24.503906 -4.1875 25.109375 -3.179688 25.921875 -2.546875 C 26.734375 -1.910156 27.523438 -1.484375 28.296875 -1.265625 C 29.078125 -1.054688 29.644531 -0.953125 30 -0.953125 L 30.328125 -0.953125 L 30.328125 0 L 5.296875 0 Z M 65.40625 -28.40625 L 48.234375 -66.046875 L 31.0625 -28.40625 Z M 65.40625 -28.40625 "/></g></g></g><g fill="#2c3e5f" fill-opacity="1"><g transform="translate(1099.064767, 821.954381)"><g><path d="M 27.25 -0.953125 C 31.132812 -0.953125 34.1875 -1.957031 36.40625 -3.96875 C 38.632812 -5.988281 39.75 -8.726562 39.75 -12.1875 L 39.75 -90.4375 L 38.703125 -90.4375 C 33.535156 -90.4375 29.148438 -89.882812 25.546875 -88.78125 C 21.941406 -87.6875 18.957031 -86.273438 16.59375 -84.546875 C 14.226562 -82.816406 12.335938 -80.992188 10.921875 -79.078125 C 9.503906 -77.171875 8.457031 -75.332031 7.78125 -73.5625 C 7.113281 -71.800781 6.675781 -70.390625 6.46875 -69.328125 L 6.15625 -67.421875 L 5.296875 -67.84375 L 8.90625 -91.390625 L 92.453125 -91.390625 L 96.046875 -67.84375 L 95.203125 -67.421875 L 94.890625 -69.328125 C 94.671875 -70.390625 94.222656 -71.800781 93.546875 -73.5625 C 92.878906 -75.332031 91.835938 -77.171875 90.421875 -79.078125 C 89.015625 -80.992188 87.125 -82.816406 84.75 -84.546875 C 82.382812 -86.273438 79.398438 -87.6875 75.796875 -88.78125 C 72.191406 -89.882812 67.8125 -90.4375 62.65625 -90.4375 L 61.703125 -90.4375 L 61.703125 -12.1875 C 61.703125 -8.726562 62.8125 -5.988281 65.03125 -3.96875 C 67.257812 -1.957031 70.320312 -0.953125 74.21875 -0.953125 L 74.21875 0 L 27.25 0 Z M 27.25 -0.953125 "/></g></g></g><g fill="#2c3e5f" fill-opacity="1"><g transform="translate(1200.408326, 821.954381)"><g><path d="M 5.296875 -0.953125 C 9.179688 -0.953125 12.238281 -1.957031 14.46875 -3.96875 C 16.695312 -5.988281 17.8125 -8.726562 17.8125 -12.1875 L 17.8125 -79.1875 C 17.8125 -82.726562 16.695312 -85.488281 14.46875 -87.46875 C 12.238281 -89.445312 9.179688 -90.4375 5.296875 -90.4375 L 5.296875 -91.390625 L 52.265625 -91.390625 L 52.265625 -90.4375 C 48.378906 -90.4375 45.320312 -89.445312 43.09375 -87.46875 C 40.863281 -85.488281 39.75 -82.726562 39.75 -79.1875 L 39.75 -12.1875 C 39.75 -8.726562 40.863281 -5.988281 43.09375 -3.96875 C 45.320312 -1.957031 48.378906 -0.953125 52.265625 -0.953125 L 52.265625 0 L 5.296875 0 Z M 5.296875 -0.953125 "/></g></g></g><g fill="#2c3e5f" fill-opacity="1"><g transform="translate(1257.970546, 821.954381)"><g><path d="M 20.671875 -79.296875 C 19.191406 -82.691406 17.425781 -85.164062 15.375 -86.71875 C 13.320312 -88.269531 11.410156 -89.273438 9.640625 -89.734375 C 7.878906 -90.203125 6.609375 -90.4375 5.828125 -90.4375 L 5.296875 -90.4375 L 5.296875 -91.390625 L 48.34375 -91.390625 L 48.34375 -90.4375 L 47.8125 -90.4375 C 47.320312 -90.4375 46.582031 -90.3125 45.59375 -90.0625 C 44.601562 -89.8125 43.664062 -89.332031 42.78125 -88.625 C 41.894531 -87.914062 41.363281 -86.816406 41.1875 -85.328125 C 41.007812 -83.847656 41.488281 -81.835938 42.625 -79.296875 L 67.21875 -25.34375 L 88.3125 -71.5625 C 89.9375 -75.09375 90.941406 -78.003906 91.328125 -80.296875 C 91.722656 -82.597656 91.722656 -84.421875 91.328125 -85.765625 C 90.941406 -87.109375 90.34375 -88.113281 89.53125 -88.78125 C 88.71875 -89.457031 87.921875 -89.898438 87.140625 -90.109375 C 86.367188 -90.328125 85.804688 -90.4375 85.453125 -90.4375 L 85.125 -90.4375 L 85.125 -91.390625 L 110.15625 -91.390625 L 110.15625 -90.4375 L 108.34375 -90.4375 C 107.144531 -90.289062 105.519531 -89.738281 103.46875 -88.78125 C 101.414062 -87.832031 99.148438 -86.050781 96.671875 -83.4375 C 94.203125 -80.820312 91.769531 -76.863281 89.375 -71.5625 L 67.75 -24.171875 L 56.828125 0 Z M 20.671875 -79.296875 "/></g></g></g><g fill="#2c3e5f" fill-opacity="1"><g transform="translate(1373.413133, 821.954381)"><g><path d="M 5.296875 -0.953125 C 9.179688 -0.953125 12.238281 -1.957031 14.46875 -3.96875 C 16.695312 -5.988281 17.8125 -8.726562 17.8125 -12.1875 L 17.8125 -79.1875 C 17.8125 -82.726562 16.695312 -85.488281 14.46875 -87.46875 C 12.238281 -89.445312 9.179688 -90.4375 5.296875 -90.4375 L 5.296875 -91.390625 L 77.28125 -91.390625 L 80.890625 -67.84375 L 80.046875 -67.421875 L 79.71875 -69.328125 C 79.507812 -70.390625 79.066406 -71.800781 78.390625 -73.5625 C 77.722656 -75.332031 76.679688 -77.171875 75.265625 -79.078125 C 73.859375 -80.992188 71.96875 -82.816406 69.59375 -84.546875 C 67.226562 -86.273438 64.242188 -87.6875 60.640625 -88.78125 C 57.035156 -89.882812 52.65625 -90.4375 47.5 -90.4375 L 39.859375 -90.4375 L 39.75 -48.453125 L 55.65625 -48.453125 C 58.132812 -48.523438 60.078125 -49.019531 61.484375 -49.9375 C 62.898438 -50.851562 63.960938 -51.984375 64.671875 -53.328125 C 65.378906 -54.671875 65.835938 -55.941406 66.046875 -57.140625 C 66.253906 -58.335938 66.359375 -59.257812 66.359375 -59.90625 L 66.359375 -60.421875 L 67.3125 -60.421875 L 67.3125 -35.40625 L 66.359375 -35.40625 L 66.359375 -35.9375 C 66.359375 -36.570312 66.253906 -37.488281 66.046875 -38.6875 C 65.835938 -39.894531 65.378906 -41.171875 64.671875 -42.515625 C 63.960938 -43.859375 62.898438 -45.003906 61.484375 -45.953125 C 60.078125 -46.910156 58.132812 -47.425781 55.65625 -47.5 L 39.75 -47.5 L 39.75 -12.1875 C 39.75 -8.726562 40.863281 -5.988281 43.09375 -3.96875 C 45.320312 -1.957031 48.378906 -0.953125 52.265625 -0.953125 C 61.378906 -0.953125 68.992188 -2.859375 75.109375 -6.671875 C 81.222656 -10.492188 85.550781 -16.253906 88.09375 -23.953125 L 89.046875 -23.953125 L 82.0625 0 L 5.296875 0 Z M 5.296875 -0.953125 "/></g></g></g></svg>